<?xml version="1.0" standalone="no"?><!DOCTYPE svg PUBLIC "-//W3C//DTD SVG 1.1//EN" "http://www.w3.org/Graphics/SVG/1.1/DTD/svg11.dtd"><svg t="1690787443832" class="icon" viewBox="0 0 1024 1024" version="1.1" xmlns="http://www.w3.org/2000/svg" p-id="46478" xmlns:xlink="http://www.w3.org/1999/xlink" width="128" height="128"><path d="M698.135239 226.612152c-0.439171-1.317513-0.878342-2.635025-1.463902-3.952538-3.513367-7.026733-7.612294-13.907076-12.004003-20.348249-13.907076-16.395711-30.302788-30.449178-47.430451-43.770693 4.098928 3.220586 8.197856 6.294782 12.296784 9.515368-13.175125-10.100929-23.715225-19.616297-34.255325-31.913081-4.098928-4.830879-8.197856-9.661758-12.589564-14.346247-0.439171 0-0.878342 0.14639-1.317513 0.14639-16.102931 2.488635-32.059471 5.27005-48.308792 5.855611-14.785418 0.585561-29.570836 0.585561-44.209864 0.585561-29.424446 0.14639-59.141673 0.14639-88.419728 3.366977-13.321515 2.195854-26.35025 5.12366-38.939815 9.661758-3.074196 1.610293-6.148392 3.220586-9.076197 4.97727-6.587563 20.641029-8.783417 42.306791-20.93381 61.337527-4.538099 7.173124-9.808149 13.467906-15.370979 19.177126 108.914367 10.68649 191.771265 60.751966 232.028592 147.268621 20.201858 43.477913 60.751966 71.584846 115.941101 88.419728 0.439171-2.488635 1.024732-4.977269 1.756683-7.173124 13.760686-36.59757 21.958542-75.098213 27.667763-113.745246 3.513367-27.521372 5.709221-55.042745 7.319514-82.710508-10.979271-7.905075-18.445175-19.469907-22.690494-32.352251z" fill="#C9E6F2" p-id="46479"></path><path d="M364.950965 252.962402c-17.420443 0-33.962545 4.538099-48.162402 12.443173 6.733953 5.12366 12.443174 11.418442 16.395711 18.006005 5.41644 9.368978 8.344246 20.78742 8.197856 32.059471 6.880343-4.391708 15.078199-6.880343 23.715225-6.880343 24.593567 0 44.649035 20.055468 44.649035 44.649035s-20.055468 44.649035-44.649035 44.649035c-12.004003 0-22.836883-4.684489-30.888349-12.443174 0.292781 6.148392 0.585561 12.296783 1.317513 18.445175 2.049464 12.443174 5.12366 24.593567 9.661758 36.304789 1.463903 3.806147 2.195854 7.758685 2.488635 11.711223 5.709221 1.024732 11.418442 1.610293 17.420443 1.610293 55.335525 0 100.277341-44.941816 100.277341-100.277341s-45.234596-100.277341-100.423731-100.277341zM633.869907 557.161401c7.465904-21.812152 13.321515-44.209864 17.713224-66.900357-8.197856 9.076197-20.055468 14.931808-33.230593 14.931808-24.593567 0-44.649035-20.055468-44.649035-44.649035s20.055468-44.649035 44.649035-44.649035c17.420443 0 32.498642 9.954539 39.818155 24.593567 0.292781-4.391708 0.585561-8.929807 0.878342-13.321516 0.878342-18.591565 8.783417-34.548106 21.22659-45.380986-17.127663-13.467906-38.500643-21.519371-61.923087-21.519371-55.335525 0-100.277341 44.941816-100.277341 100.277341s44.941816 100.277341 100.277341 100.277341c4.977269 0 9.954539-0.439171 14.785418-1.024732 0.14639-1.024732 0.439171-1.903074 0.731951-2.635025z" fill="#FF9300" p-id="46480"></path><path d="M171.715797 86.516655c10.5401-0.292781 21.519371 0.439171 32.645032 1.903073 30.741959 4.098928 62.508649 14.492638 94.42173 29.131666 24.739957 11.272051 44.502645 22.690493 56.506648 30.595568 15.51737 10.24732 20.201858 30.741959 10.68649 46.698499-9.515368 15.95654-30.010007 21.372981-46.259328 12.443174l-8.051465-4.97727c-13.467906-8.051465-27.228592-15.370979-41.428449-21.812151-26.35025-12.004003-51.968549-20.348249-75.098213-23.568835-7.173124-1.024732-14.346247-1.463903-21.665762-1.317513-55.628306 1.317513-87.394996 38.500643-94.56812 103.205147-0.439171 4.098928-0.731951 8.051465-1.024732 12.296783l-0.14639 1.903074 3.074196-1.317513c53.432452-22.983274 116.233881-4.098928 145.951108 55.628306l1.903073 4.098928c32.645032 71.292066 24.154396 133.654325-20.933809 166.006576-41.135668 29.570836-100.130951 22.251322-134.093496-17.420443C26.35025 424.824589 1.024732 332.305933 10.100929 251.205718 20.78742 155.027305 77.586848 88.858899 171.715797 86.516655z m-5.855611 273.749821c-15.81015-34.401716-52.55411-38.939814-78.75797-9.661758l-1.024732 1.317512 0.14639 0.731952c7.905075 30.302788 20.494639 58.263331 36.74396 78.611579l3.220586 3.952538c10.68649 12.443174 29.424446 14.785418 41.282059 6.294782 14.785418-10.979271 18.445175-37.329521-1.610293-81.246605z m0 0" fill="#0079C4" p-id="46481"></path><path d="M509.730951 94.42173c97.495926 2.049464 170.544675 32.059471 210.655611 101.887634 40.550107 70.706505-3.659757 250.473767-58.556112 368.171551l-2.781415 6.002001c-6.733953 14.199857-12.150393 71.292066-13.907076 149.025304-0.878342 38.354253-1.024732 79.050751-0.585562 118.429736l0.439171 28.985275 0.439171 21.958542c0.292781 18.884346-14.785418 34.401716-33.669764 34.987276-18.884346 0.585561-34.694496-14.199857-35.426447-33.084203l-0.585562-28.253323c-0.731951-47.43045-0.878342-97.642316 0.292781-144.779986l0.439171-16.102931c2.488635-81.539385 8.051465-135.557398 20.201858-161.029307 45.673767-95.592852 88.712509-266.576698 63.826162-310.05461-25.764689-44.795425-76.415726-65.582845-150.781987-67.193138-75.830164 1.610293-126.481201 22.397713-152.24589 67.193138-24.886347 43.477913 18.152395 214.608149 63.826161 310.05461 13.028735 27.228592 18.591565 86.516655 20.64103 177.278628 0.878342 39.232595 1.024732 80.661044 0.585561 120.77198l-0.585561 39.818156-0.292781 12.296783c-0.878342 18.884346-16.542102 33.523374-35.426447 33.084203-18.884346-0.585561-33.816154-16.102931-33.669765-34.987276l0.439171-21.958542 0.146391-5.562831c0.878342-47.28406 0.731951-94.56812-0.292781-141.99857l-0.731951-26.496641c-2.342244-63.972552-7.173124-109.939099-13.175125-122.528663-56.213867-117.405004-102.619585-302.295926-61.337527-374.319943 40.110936-69.535382 113.159685-99.54539 212.119514-101.594853z m0 0" fill="#0079C4" p-id="46482"></path><path d="M840.719371 86.516655h6.441172c94.128949 2.342244 150.928377 68.51065 161.614868 164.689063 8.929807 80.953824-16.395711 173.618871-63.679771 228.808006-33.962545 39.671766-92.957827 46.991279-134.093496 17.420443-45.088206-32.352252-53.578842-94.71451-20.933809-166.006576 28.838885-62.94782 93.250608-83.296069 148.000571-59.727234l3.074196 1.317513-0.14639-1.903074-0.439171-6.148391-0.585561-6.148392c-7.173124-64.850893-39.086204-101.887634-94.56812-103.205147-6.733953-0.14639-14.053467 0.292781-21.665761 1.317513-23.129664 3.074196-48.747963 11.418442-74.951823 23.568835-12.443174 5.709221-24.008006 11.711222-34.548106 17.713223l-6.880343 4.098928-5.709221 3.513367c-10.24732 7.026733-23.568835 7.905075-34.840886 2.488635-11.125661-5.562831-18.591565-16.688492-19.177127-29.131666-0.731951-12.443174 5.41644-24.300786 15.956541-31.034739 12.004003-7.905075 31.76669-19.177127 56.506647-30.595568 31.913081-14.639028 63.679771-24.886347 94.42173-29.131666 8.929807-1.171122 17.566833-1.903074 26.20386-1.903073z m91.054753 263.941672c-26.20386-29.278056-62.94782-24.593567-78.75797 9.661759-20.055468 43.917084-16.542102 70.267334-1.610293 81.100214 11.857613 8.490636 30.595568 6.148392 41.282059-6.294782 16.542102-19.177127 29.717227-46.259328 38.207863-76.122945l1.903073-7.026733-1.024732-1.317513z m0 0" fill="#0079C4" p-id="46483"></path></svg>